<svg width="18.333496" height="18.333984" viewBox="0 0 18.3335 18.334" fill="none" xmlns="http://www.w3.org/2000/svg" xmlns:xlink="http://www.w3.org/1999/xlink">
	<desc>
			Created with Pixso.
	</desc>
	<defs/>
	<path id="plus" d="M9.16 0C9.62 0 10 0.37 10 0.83L10 8.33L17.5 8.33C17.96 8.33 18.33 8.7 18.33 9.16C18.33 9.62 17.96 10 17.5 10L10 10L10 17.5C10 17.96 9.62 18.33 9.16 18.33C8.7 18.33 8.33 17.96 8.33 17.5L8.33 10L0.83 10C0.37 10 0 9.62 0 9.16C0 8.7 0.37 8.33 0.83 8.33L8.33 8.33L8.33 0.83C8.33 0.37 8.7 0 9.16 0Z" fill="#FF3F3A" fill-opacity="1.000000" fill-rule="evenodd"/>
</svg>
