<svg width="15.170898" height="13.328125" viewBox="0 0 15.1709 13.3281" fill="none" xmlns="http://www.w3.org/2000/svg" xmlns:xlink="http://www.w3.org/1999/xlink">
	<desc>
			Created with Pixso.
	</desc>
	<defs/>
	<path id="Vector (Stroke)" d="M7.58 11.8C4.51 10.05 2.8 8.32 1.98 6.81C1.13 5.27 1.2 3.97 1.67 3.05C2.64 1.16 5.38 0.55 7.06 2.66L7.58 3.33L8.1 2.66C9.78 0.55 12.52 1.16 13.49 3.05C13.96 3.97 14.03 5.27 13.18 6.81C12.36 8.32 10.65 10.05 7.58 11.8ZM7.58 1.26C5.23 -0.97 1.76 -0.05 0.49 2.44C-0.21 3.81 -0.22 5.58 0.81 7.45C1.83 9.31 3.86 11.27 7.26 13.15L7.58 13.32L7.9 13.15C11.3 11.27 13.33 9.31 14.35 7.45C15.38 5.58 15.37 3.81 14.67 2.44C13.4 -0.05 9.93 -0.97 7.58 1.26Z" fill="#FF3F3A" fill-opacity="1.000000" fill-rule="evenodd"/>
</svg>
