<svg width="19.996094" height="20.000000" viewBox="0 0 19.9961 20" fill="none" xmlns="http://www.w3.org/2000/svg" xmlns:xlink="http://www.w3.org/1999/xlink">
	<desc>
			Created with Pixso.
	</desc>
	<defs/>
	<path id="Vector" d="M19.94 5.88C19.89 4.81 19.72 4.08 19.48 3.45C19.22 2.78 18.83 2.17 18.32 1.67C17.82 1.17 17.21 0.77 16.55 0.52C15.91 0.28 15.19 0.1 14.12 0.06C13.05 0.01 12.71 0 10 0C7.28 0 6.94 0.01 5.87 0.05C4.81 0.1 4.08 0.27 3.45 0.52C2.78 0.77 2.18 1.16 1.68 1.67C1.17 2.17 0.77 2.78 0.52 3.44C0.28 4.08 0.1 4.81 0.06 5.87C0.01 6.94 0 7.28 0 10C0 12.71 0.01 13.05 0.05 14.12C0.1 15.18 0.27 15.91 0.52 16.55C0.77 17.22 1.17 17.82 1.68 18.32C2.18 18.83 2.78 19.22 3.44 19.47C4.08 19.72 4.81 19.89 5.87 19.94C6.94 19.98 7.28 20 9.99 20C12.71 20 13.05 19.98 14.12 19.94C15.18 19.89 15.91 19.72 16.54 19.47C17.89 18.95 18.95 17.89 19.47 16.55C19.71 15.91 19.89 15.18 19.93 14.12C19.98 13.05 19.99 12.71 19.99 10C19.99 7.28 19.99 6.94 19.94 5.88ZM18.14 14.04C18.1 15.02 17.93 15.55 17.8 15.9C17.46 16.77 16.77 17.46 15.9 17.8C15.54 17.93 15.01 18.1 14.04 18.14C12.99 18.19 12.67 18.2 10 18.2C7.33 18.2 7.01 18.19 5.96 18.14C4.98 18.1 4.46 17.93 4.11 17.8C3.67 17.64 3.28 17.38 2.96 17.05C2.62 16.73 2.37 16.33 2.21 15.9C2.07 15.55 1.91 15.02 1.87 14.04C1.82 12.99 1.81 12.67 1.81 10C1.81 7.34 1.82 7.02 1.87 5.97C1.91 4.99 2.07 4.46 2.21 4.11C2.37 3.67 2.62 3.28 2.96 2.96C3.28 2.63 3.68 2.37 4.11 2.21C4.46 2.08 4.99 1.91 5.96 1.87C7.02 1.82 7.34 1.81 10 1.81C12.68 1.81 12.99 1.82 14.04 1.87C15.02 1.91 15.55 2.08 15.9 2.21C16.33 2.37 16.73 2.63 17.05 2.96C17.38 3.28 17.64 3.67 17.8 4.11C17.93 4.46 18.1 4.99 18.14 5.97C18.19 7.02 18.2 7.34 18.2 10C18.2 12.67 18.19 12.99 18.14 14.04ZM15.34 5.86C16 5.86 16.54 5.32 16.54 4.66C16.54 3.99 16 3.46 15.34 3.46C14.68 3.46 14.14 3.99 14.14 4.66C14.14 5.32 14.68 5.86 15.34 5.86ZM10 4.86C7.16 4.86 4.86 7.16 4.86 10C4.86 12.83 7.16 15.14 10 15.14C12.83 15.14 15.13 12.83 15.13 10C15.13 7.16 12.83 4.86 10 4.86ZM10 13.33C8.16 13.33 6.66 11.84 6.66 10C6.66 8.16 8.16 6.66 10 6.66C11.84 6.66 13.33 8.16 13.33 10C13.33 11.84 11.84 13.33 10 13.33Z" fill="#FFFFFF" fill-opacity="1.000000" fill-rule="evenodd"/>
</svg>
