<svg width="16.000000" height="16.000000" viewBox="0 0 16 16" fill="none" xmlns="http://www.w3.org/2000/svg" xmlns:xlink="http://www.w3.org/1999/xlink">
	<desc>
			Created with Pixso.
	</desc>
	<defs>
		<clipPath id="clip7_320">
			<rect id="Files" width="16.000000" height="16.000000" fill="white" fill-opacity="0"/>
		</clipPath>
	</defs>
	<g clip-path="url(#clip7_320)">
		<path id="Vector" d="M6.49 0.83C6.32 0.83 6.15 0.9 6.02 1.02L2.52 4.52C2.4 4.65 2.33 4.82 2.33 5L2.33 12.5C2.33 13.97 3.52 15.16 4.99 15.16L10.99 15.16C12.47 15.16 13.66 13.97 13.66 12.5L13.66 3.5C13.66 2.02 12.47 0.83 10.99 0.83L6.49 0.83ZM3.66 12.5L3.66 6.16L6.99 6.16C7.36 6.16 7.66 5.86 7.66 5.5L7.66 2.16L10.99 2.16C11.73 2.16 12.33 2.76 12.33 3.5L12.33 12.5C12.33 13.23 11.73 13.83 10.99 13.83L4.99 13.83C4.26 13.83 3.66 13.23 3.66 12.5ZM6.33 4.83L6.33 2.6L4.1 4.83L6.33 4.83ZM5.33 9C5.33 8.63 5.63 8.33 5.99 8.33L9.99 8.33C10.36 8.33 10.66 8.63 10.66 9C10.66 9.36 10.36 9.66 9.99 9.66L5.99 9.66C5.63 9.66 5.33 9.36 5.33 9ZM5.33 11.5C5.33 11.13 5.63 10.83 5.99 10.83L7.99 10.83C8.36 10.83 8.66 11.13 8.66 11.5C8.66 11.86 8.36 12.16 7.99 12.16L5.99 12.16C5.63 12.16 5.33 11.86 5.33 11.5Z" fill="#424551" fill-opacity="1.000000" fill-rule="evenodd"/>
	</g>
</svg>
