<svg width="9.648926" height="18.333984" viewBox="0 0 9.64893 18.334" fill="none" xmlns="http://www.w3.org/2000/svg" xmlns:xlink="http://www.w3.org/1999/xlink">
	<desc>
			Created with Pixso.
	</desc>
	<defs/>
	<path id="Vector" d="M9.28 0L6.97 0C4.37 0 2.69 1.77 2.69 4.51L2.69 6.59L0.36 6.59C0.16 6.59 0 6.75 0 6.96L0 9.98C0 10.18 0.16 10.35 0.36 10.35L2.69 10.35L2.69 17.95C2.69 18.16 2.85 18.33 3.05 18.33L6.09 18.33C6.29 18.33 6.45 18.16 6.45 17.95L6.45 10.35L9.17 10.35C9.37 10.35 9.53 10.18 9.53 9.98L9.54 6.96C9.54 6.86 9.5 6.77 9.43 6.7C9.36 6.63 9.27 6.59 9.17 6.59L6.45 6.59L6.45 4.82C6.45 3.98 6.65 3.55 7.72 3.55L9.28 3.55C9.48 3.55 9.64 3.38 9.64 3.17L9.64 0.37C9.64 0.17 9.48 0 9.28 0Z" fill="#FFFFFF" fill-opacity="1.000000" fill-rule="nonzero"/>
</svg>
