<svg width="16.663574" height="16.666016" viewBox="0 0 16.6636 16.666" fill="none" xmlns="http://www.w3.org/2000/svg" xmlns:xlink="http://www.w3.org/1999/xlink">
	<desc>
			Created with Pixso.
	</desc>
	<defs/>
	<path id="Vector" d="M16.62 4.9C16.58 4.01 16.43 3.4 16.23 2.87C16.02 2.31 15.69 1.81 15.27 1.4C14.85 0.97 14.34 0.64 13.79 0.43C13.26 0.23 12.65 0.09 11.77 0.05C10.88 0 10.59 0 8.33 0C6.07 0 5.78 0 4.89 0.04C4.01 0.08 3.4 0.23 2.87 0.43C2.31 0.64 1.81 0.97 1.39 1.4C0.97 1.81 0.64 2.32 0.43 2.87C0.23 3.4 0.09 4.01 0.05 4.89C0 5.78 0 6.07 0 8.33C0 10.59 0 10.88 0.04 11.76C0.08 12.65 0.23 13.26 0.43 13.79C0.64 14.35 0.97 14.85 1.39 15.26C1.81 15.69 2.32 16.02 2.87 16.23C3.4 16.43 4.01 16.57 4.89 16.61C5.78 16.65 6.06 16.66 8.33 16.66C10.59 16.66 10.87 16.65 11.76 16.61C12.65 16.57 13.26 16.43 13.78 16.23C14.9 15.79 15.79 14.91 16.22 13.79C16.43 13.26 16.57 12.65 16.61 11.76C16.65 10.88 16.66 10.59 16.66 8.33C16.66 6.07 16.66 5.78 16.62 4.9ZM15.12 11.7C15.08 12.51 14.94 12.95 14.83 13.25C14.55 13.97 13.97 14.55 13.25 14.83C12.95 14.94 12.51 15.08 11.7 15.11C10.82 15.16 10.56 15.16 8.33 15.16C6.11 15.16 5.84 15.16 4.97 15.11C4.15 15.08 3.71 14.94 3.42 14.83C3.06 14.69 2.73 14.48 2.46 14.21C2.19 13.94 1.97 13.61 1.84 13.25C1.73 12.96 1.59 12.51 1.55 11.7C1.52 10.82 1.51 10.56 1.51 8.34C1.51 6.11 1.52 5.85 1.55 4.97C1.59 4.16 1.73 3.72 1.84 3.42C1.97 3.06 2.19 2.73 2.47 2.47C2.74 2.19 3.06 1.98 3.42 1.84C3.72 1.73 4.16 1.59 4.97 1.56C5.85 1.52 6.11 1.51 8.34 1.51C10.56 1.51 10.83 1.52 11.7 1.56C12.52 1.59 12.96 1.73 13.25 1.84C13.61 1.98 13.94 2.19 14.21 2.47C14.48 2.74 14.7 3.06 14.83 3.42C14.94 3.72 15.08 4.16 15.12 4.97C15.15 5.85 15.16 6.11 15.16 8.34C15.16 10.56 15.15 10.82 15.12 11.7ZM12.78 4.88C13.33 4.88 13.78 4.43 13.78 3.88C13.78 3.33 13.33 2.88 12.78 2.88C12.23 2.88 11.78 3.33 11.78 3.88C11.78 4.43 12.23 4.88 12.78 4.88ZM8.33 4.05C5.97 4.05 4.05 5.97 4.05 8.33C4.05 10.69 5.97 12.61 8.33 12.61C10.69 12.61 12.61 10.69 12.61 8.33C12.61 5.97 10.69 4.05 8.33 4.05ZM8.33 11.11C6.8 11.11 5.55 9.86 5.55 8.33C5.55 6.8 6.8 5.55 8.33 5.55C9.86 5.55 11.11 6.8 11.11 8.33C11.11 9.86 9.86 11.11 8.33 11.11Z" fill="#FFFFFF" fill-opacity="1.000000" fill-rule="evenodd"/>
</svg>
